<?xml version="1.0" encoding="utf-8"?>
<!-- Generator: Adobe Illustrator 26.0.2, SVG Export Plug-In . SVG Version: 6.00 Build 0)  -->
<svg version="1.1" id="Layer_1" xmlns="http://www.w3.org/2000/svg" xmlns:xlink="http://www.w3.org/1999/xlink" x="0px" y="0px"
	 viewBox="0 0 34.5434799 18.3999996" style="enable-background:new 0 0 34.5434799 18.3999996;" xml:space="preserve">
<style type="text/css">
	.st0{fill:#02968D;}
	.st1{fill:#F1F0D8;}
	.st2{fill:#EA5424;}
	.st3{fill:#458DCB;}
	.st4{fill:#FDC733;}
	.st5{fill:#EF7E8B;}
	.st6{fill:#009645;}
</style>
<g>
	<g>
		<path class="st0" d="M0.8665506,16.4943237v-1.8173828l3.4833982-2.8818359
			c0.2294922-0.1923828,0.4287109-0.3730469,0.5957031-0.5419922s0.2949219-0.34375,0.3847656-0.5234375
			s0.1347656-0.3798828,0.1347656-0.6015625c0-0.2382812-0.0507812-0.4414062-0.1533203-0.6108398
			C5.2093239,9.3483276,5.0696754,9.2174683,4.8919411,9.1256714S4.5091286,8.9879761,4.2747536,8.9879761
			c-0.2333984,0-0.4394529,0.046875-0.6171873,0.1411133c-0.1777344,0.09375-0.3154297,0.2304688-0.4130859,0.4101562
			c-0.0986328,0.1796875-0.1474609,0.4013672-0.1474609,0.6640625h-2.40625c0-0.6557617,0.1474609-1.2197266,0.4414062-1.6914062
			c0.2949219-0.472168,0.7119141-0.8369141,1.2509767-1.09375c0.5380859-0.2568359,1.1689453-0.3852539,1.8916013-0.3852539
			c0.7480469,0,1.3955078,0.1191406,1.9423828,0.3574219c0.5478516,0.237793,0.9707031,0.5732422,1.2695312,1.0053711
			c0.2978516,0.4326172,0.4472656,0.9389648,0.4472656,1.5195312c0,0.359375-0.0742188,0.7158203-0.2216797,1.0683594
			c-0.1484375,0.3525391-0.4150391,0.7441406-0.7998047,1.1748047c-0.3837891,0.4306641-0.9335938,0.9394531-1.6474609,1.5292969
			l-0.8769531,0.7265625v0.0625h3.6464844v2.0175781H0.8665506z"/>
		<path class="st0" d="M18.6546364,16.4943237v-1.8173828l3.4833984-2.8818359
			c0.2294922-0.1923828,0.4287109-0.3730469,0.5957031-0.5419922s0.2949219-0.34375,0.3847656-0.5234375
			s0.1347656-0.3798828,0.1347656-0.6015625c0-0.2382812-0.0507812-0.4414062-0.1533203-0.6108398
			c-0.1025391-0.1689453-0.2421875-0.2998047-0.4199219-0.3916016s-0.3828125-0.1376953-0.6171875-0.1376953
			c-0.2333984,0-0.4394531,0.046875-0.6171875,0.1411133c-0.1777344,0.09375-0.3154297,0.2304688-0.4130859,0.4101562
			c-0.0986328,0.1796875-0.1474609,0.4013672-0.1474609,0.6640625h-2.40625c0-0.6557617,0.1474609-1.2197266,0.4414062-1.6914062
			c0.2949219-0.472168,0.7119141-0.8369141,1.2509766-1.09375c0.5380859-0.2568359,1.1689453-0.3852539,1.8916016-0.3852539
			c0.7480469,0,1.3955078,0.1191406,1.9423828,0.3574219c0.5478516,0.237793,0.9707031,0.5732422,1.2695312,1.0053711
			c0.2978516,0.4326172,0.4472656,0.9389648,0.4472656,1.5195312c0,0.359375-0.0742188,0.7158203-0.2216797,1.0683594
			c-0.1484375,0.3525391-0.4150391,0.7441406-0.7998047,1.1748047c-0.3837891,0.4306641-0.9335938,0.9394531-1.6474609,1.5292969
			l-0.8769531,0.7265625v0.0625h3.6464844v2.0175781H18.6546364z"/>
		<path class="st0" d="M30.2962379,16.6193237c-0.7353516,0-1.3876953-0.1259766-1.9580078-0.3789062
			s-1.0175781-0.6025391-1.3408203-1.0498047c-0.3242188-0.4462891-0.4853516-0.9599609-0.4853516-1.5410156h2.5439453
			c0,0.1796875,0.0537109,0.3398438,0.1621094,0.4794922c0.109375,0.1396484,0.2597656,0.25,0.4511719,0.3291016
			c0.1923828,0.0791016,0.4101562,0.1191406,0.6523438,0.1191406c0.2333984,0,0.4394531-0.0419922,0.6171875-0.1259766
			c0.1767578-0.0830078,0.3154297-0.1982422,0.4130859-0.3447266c0.0986328-0.1455078,0.1474609-0.3144531,0.1474609-0.5068359
			s-0.0576172-0.3603516-0.1728516-0.5048828c-0.1142578-0.1435547-0.2753906-0.2568359-0.4824219-0.3378906
			c-0.2060547-0.0820312-0.4472656-0.1220703-0.7236328-0.1220703h-0.9521484v-1.7548828h0.9521484
			c0.2509766,0,0.4726562-0.0419922,0.6640625-0.125c0.1923828-0.0839844,0.3427734-0.1972656,0.4511719-0.3417969
			c0.109375-0.1445312,0.1630859-0.3105469,0.1630859-0.4980469c0-0.1835938-0.0458984-0.3447266-0.1376953-0.4824219
			s-0.2177734-0.246582-0.3789062-0.3256836c-0.1611328-0.0795898-0.3476562-0.1191406-0.5605469-0.1191406
			c-0.234375,0-0.4423828,0.0405273-0.6240234,0.1220703s-0.3232422,0.1943359-0.4257812,0.3383789
			s-0.1533203,0.3125-0.1533203,0.5039062h-2.4316406c0-0.5717773,0.15625-1.0771484,0.4667969-1.515625
			c0.3115234-0.4389648,0.7402344-0.7822266,1.2880859-1.0307617c0.546875-0.2485352,1.1738281-0.3730469,1.8798828-0.3730469
			c0.6884766,0,1.2988281,0.1171875,1.8291016,0.3510742s0.9453125,0.5556641,1.2441406,0.9648438
			s0.4482422,0.8769531,0.4482422,1.4033203c0,0.5185547-0.1806641,0.9453125-0.5419922,1.28125
			c-0.3613281,0.3369141-0.8203125,0.5361328-1.3759766,0.5986328v0.0625
			c0.7519531,0.0839844,1.3164062,0.3144531,1.6923828,0.6923828s0.5634766,0.8535156,0.5634766,1.4257812
			c0,0.546875-0.1650391,1.0332031-0.4951172,1.4570312s-0.7861328,0.7548828-1.3691406,0.9931641
			C31.7347145,16.5001831,31.0608864,16.6193237,30.2962379,16.6193237z"/>
	</g>
</g>
<g>
	<path class="st1" d="M14.0383272,9.604455l-0.8228979,0.2571554L12.3410997,9.604455l-0.9257603,0.6686049l-0.0514317,0.8228979
		l-0.4628801,0.8228979l0.3600178,1.0800543l0.8743296,0.3085871l0.4628801,0.6686049h1.2343473l0.4628801-0.6686049
		l0.8743296-0.3600178L15.52983,11.867425l-0.4628801-0.8228979l-0.0514317-0.8228979L14.0383272,9.604455z M13.8326025,12.6388912
		h-1.2343473l-0.4114485-1.1829157l1.0286226-0.7200356l1.0286226,0.7200356L13.8326025,12.6388912z"/>
	<path class="st2" d="M11.4153395,13.5646515l-0.4628801,0.7200365l0.3600178,0.3600178l0.4114485,0.2057238l0.5143118-0.7714663
		L11.4153395,13.5646515z"/>
	<path class="st2" d="M14.9640875,13.5646515l0.7200356,0.4628801l0.3600187-0.3600178l0.2057228-0.4628801L15.52983,12.7417545
		L14.9640875,13.5646515z"/>
	<path class="st2" d="M14.9640875,10.0159035l0.5143108-0.7200356l-0.3600178-0.3600178l-0.4628801-0.2057247L14.1411896,9.450161
		L14.9640875,10.0159035z"/>
	<path class="st2" d="M11.4153395,10.0159035L10.695303,9.5015926l-0.3600178,0.3600178l-0.2057247,0.4628801l0.7200365,0.4628801
		L11.4153395,10.0159035z"/>
	<path class="st3" d="M10.849597,12.7417545l-0.7200365,0.4628792l0.2057247,0.4628801l0.3600178,0.3600178l0.7200365-0.4628801
		L10.849597,12.7417545z"/>
	<path class="st3" d="M14.1411896,14.0789633l0.4628801,0.7200356l0.4628801-0.2057238l0.3600178-0.3600187l-0.5143118-0.7200356
		L14.1411896,14.0789633z"/>
	<path class="st3" d="M15.52983,10.7873707l0.7200365-0.4628801l-0.2057247-0.4628801L15.684124,9.5015926l-0.7200365,0.5143108
		L15.52983,10.7873707z"/>
	<path class="st3" d="M12.2382374,9.450161l-0.5143118-0.7200356l-0.4628801,0.1542931l-0.3600178,0.3600187l0.5143118,0.7200356
		L12.2382374,9.450161z"/>
	<path class="st4" d="M10.695303,11.7645626l-0.8743286,0.1542931v0.5143118l0.2057247,0.4628792l0.8743286-0.1542931
		L10.695303,11.7645626z"/>
	<path class="st4" d="M13.2154293,14.284688l0.1542931,0.8743296h0.5143118l0.4628801-0.2057247l-0.2057247-0.8743286
		L13.2154293,14.284688z"/>
	<path class="st4" d="M16.4041595,10.6330776L15.52983,10.7873707l0.2057247,0.9771919l0.8743296-0.154294v-0.5143108
		L16.4041595,10.6330776z"/>
	<path class="st4" d="M13.2154293,9.2444372l-0.154294-0.8743296h-0.5143108l-0.4628801,0.2057247l0.1542931,0.8743286
		L13.2154293,9.2444372z"/>
	<path class="st1" d="M10.849597,10.7873707l-0.8743296-0.1542931l-0.2057247,0.4628801v0.5143108l0.9257603,0.154294
		L10.849597,10.7873707z"/>
	<path class="st1" d="M12.2382374,14.0789633l-0.1542931,0.8743296l0.4628801,0.2057247h0.5143108l0.154294-0.8743296
		L12.2382374,14.0789633z"/>
	<path class="st1" d="M15.52983,12.7417545l0.8743296,0.1542931l0.2057247-0.4628801v-0.5143108l-0.8743296-0.154294
		L15.52983,12.7417545z"/>
	<path class="st1" d="M14.1411896,9.450161l0.1542931-0.8743286l-0.4628801-0.2057247h-0.5143118l-0.1542931,0.8743296
		L14.1411896,9.450161z"/>
	<path class="st5" d="M8.432333,11.0959578v1.3372097h1.3372097v-1.3372097H8.432333z"/>
	<path class="st5" d="M13.8840342,15.1590176h-1.3372097v1.3372097h1.3372097V15.1590176z"/>
	<path class="st5" d="M16.5584526,11.0959578v1.3372097h1.3372097v-1.3372097H16.5584526z"/>
	<path class="st5" d="M12.4953928,7.0328979v1.3372097h1.3372097V7.0328979H12.4953928z"/>
	<path class="st6" d="M9.8209743,12.4331675L8.586627,12.9474783l0.5143108,1.2343473l1.2343473-0.5143118L9.8209743,12.4331675z"/>
	<path class="st6" d="M11.2610455,14.6447058l-0.5143108,1.2343473l1.2343473,0.5143108l0.5143108-1.2343464L11.2610455,14.6447058z
		"/>
	<path class="st6" d="M15.1183805,14.6447058l-1.2343464,0.5143118l0.5143108,1.2343464l1.2343473-0.5143108L15.1183805,14.6447058z
		"/>
	<path class="st6" d="M16.5584526,12.4331675l-0.5143108,1.2343464l1.2343464,0.5143118l0.5143127-1.2343473L16.5584526,12.4331675z
		"/>
	<path class="st6" d="M17.3299198,9.3472986l-1.2343483,0.5143118l0.5143127,1.2343473l1.2343464-0.5143118L17.3299198,9.3472986z"
		/>
	<path class="st6" d="M14.398345,7.1357603l-0.5143108,1.2343473l1.2343464,0.5143108l0.5143118-1.2343469L14.398345,7.1357603z"/>
	<path class="st6" d="M11.981082,7.1357603l-1.2343473,0.5143113l0.5143108,1.2343469l1.2343473-0.5143108L11.981082,7.1357603z"/>
	<path class="st6" d="M9.1009378,9.3472986L8.586627,10.581646l1.2343473,0.5143118l0.5143108-1.2343473L9.1009378,9.3472986z"/>
	<path class="st1" d="M10.3352852,13.6675138l-0.977191,0.9771919l0.977191,0.977191l0.9771919-0.977191L10.3352852,13.6675138z"/>
	<path class="st1" d="M16.0441418,13.6675138l-0.9771919,0.9771919l0.9771919,0.977191l0.9771919-0.977191L16.0441418,13.6675138z"
		/>
	<path class="st1" d="M16.0441418,7.9586582l-0.9771919,0.9771919l0.9771919,0.977191l0.9771919-0.977191L16.0441418,7.9586582z"/>
	<path class="st1" d="M11.2610455,8.8844185l-0.9257603-0.9257603l-0.977191,0.9257603l0.977191,0.9771919l0.3600178-0.3600178
		l0.2571554-0.2571554L11.2610455,8.8844185z"/>
</g>
<g>
	<path class="st0" d="M1.6487771,5.8722534L0.7034647,2.6710815h0.9716796l0.4375001,1.9682617h0.0263672l0.515625-1.9682617
		h0.7646484l0.515625,1.9765625h0.0253906L4.398777,2.6710815h0.9707031L4.4241676,5.8722534H3.5911601L3.0491679,4.0846558
		H3.0237772L2.4827616,5.8722534H1.6487771z"/>
	<path class="st0" d="M6.8802223,5.9152222c-0.2910156,0-0.5537109-0.0629883-0.7900391-0.1889648
		c-0.2353516-0.1259766-0.421875-0.3110352-0.5595703-0.5551758c-0.1367188-0.2446289-0.2060547-0.543457-0.2060547-0.8969727
		c0-0.3569336,0.0693359-0.6577148,0.2060547-0.9023438c0.1376953-0.2451172,0.3242188-0.4301758,0.5595703-0.5556641
		c0.2363281-0.125,0.4990234-0.1879883,0.7900391-0.1879883s0.5537109,0.0629883,0.7880859,0.1879883
		c0.2353516,0.1254883,0.421875,0.3105469,0.5595703,0.5556641C8.3665504,3.616394,8.4358864,3.9171753,8.4358864,4.2741089
		c0,0.3549805-0.0693359,0.6547852-0.2080078,0.8989258C8.0901833,5.4171753,7.9036598,5.6017456,7.6683083,5.7272339
		C7.4339333,5.8527222,7.1712379,5.9152222,6.8802223,5.9152222z M6.8802223,5.1588745
		c0.1445312,0,0.265625-0.0336914,0.3642578-0.1020508c0.0976562-0.0678711,0.171875-0.1679688,0.2216797-0.2993164
		c0.0507812-0.1318359,0.0751953-0.2929688,0.0751953-0.4833984c0-0.1918945-0.0244141-0.3544922-0.0751953-0.4868164
		C7.4163551,3.6549683,7.3421364,3.5543823,7.2444801,3.4865112C7.1458473,3.4186401,7.0247536,3.3844604,6.8802223,3.3844604
		c-0.1435547,0-0.2636719,0.0341797-0.3623047,0.1020508c-0.0976562,0.0678711-0.1728516,0.168457-0.2236328,0.3007812
		S6.2181129,4.0822144,6.2181129,4.2741089c0,0.1904297,0.0253906,0.3515625,0.0761719,0.4833984
		C6.3450661,4.888855,6.4202614,4.9889526,6.5179176,5.0568237C6.6165504,5.1251831,6.7366676,5.1588745,6.8802223,5.1588745z"/>
	<path class="st0" d="M8.7317848,5.8722534V2.6710815h1.3798828c0.2373047,0,0.4453125,0.043457,0.6240234,0.1303711
		c0.1777344,0.0864258,0.3173828,0.2109375,0.4169922,0.3735352c0.0986328,0.1625977,0.1484375,0.3569336,0.1484375,0.5834961
		c0,0.2290039-0.0507812,0.4223633-0.1523438,0.5800781c-0.1015625,0.1572266-0.2441406,0.2763672-0.4277344,0.3564453
		c-0.1826172,0.0800781-0.3964844,0.1201172-0.6396484,0.1201172H9.2561989V4.1408081h0.6494141
		c0.1025391,0,0.1904297-0.0131836,0.2636719-0.0385742c0.0732422-0.0258789,0.1289062-0.0668945,0.1679688-0.1225586
		c0.0380859-0.0561523,0.0576172-0.1298828,0.0576172-0.2211914c0-0.0917969-0.0195312-0.1665039-0.0576172-0.2236328
		c-0.0390625-0.0571289-0.0947266-0.0996094-0.1679688-0.1264648c-0.0732422-0.0273438-0.1611328-0.0410156-0.2636719-0.0410156
		H9.5999489v2.5048828H8.7317848z M10.4632301,5.8722534l-0.78125-1.4692383h0.9238281l0.8027344,1.4692383H10.4632301z"/>
	<path class="st0" d="M11.5667458,5.8722534V2.6710815h0.8681641v2.5009766h1.2929688v0.7001953H11.5667458z"/>
	<path class="st0" d="M14.8460426,2.6710815v3.2011719h-0.8681641V2.6710815H14.8460426z M15.211277,5.8722534h-0.8759766V5.1334839
		h0.8417969c0.1591797,0,0.2949219-0.0253906,0.4072266-0.0751953c0.1123047-0.050293,0.1972656-0.1381836,0.2568359-0.2631836
		c0.0585938-0.1254883,0.0878906-0.2993164,0.0878906-0.5209961c0-0.2236328-0.0302734-0.3979492-0.0888672-0.5234375
		c-0.0595703-0.125-0.1474609-0.2133789-0.2636719-0.2641602s-0.2578125-0.0761719-0.4248047-0.0761719h-0.8300781V2.6710815
		h0.8769531c0.3291016,0,0.6132812,0.0644531,0.8525391,0.1923828c0.2392578,0.128418,0.4238281,0.3120117,0.5546875,0.5512695
		c0.1298828,0.2392578,0.1953125,0.5253906,0.1953125,0.859375c0,0.3320312-0.0644531,0.6176758-0.1943359,0.8569336
		s-0.3134766,0.4223633-0.5507812,0.5498047C15.8177223,5.8087769,15.5364723,5.8722534,15.211277,5.8722534z"/>
	<path class="st0" d="M19.4007301,5.9152222c-0.2929688,0-0.5546875-0.0629883-0.7880859-0.1889648
		c-0.2324219-0.1259766-0.4160156-0.3110352-0.5517578-0.5551758c-0.1357422-0.2446289-0.203125-0.543457-0.203125-0.8969727
		c0-0.3569336,0.0693359-0.6577148,0.2060547-0.9023438c0.1376953-0.2451172,0.3232422-0.4301758,0.5566406-0.5556641
		c0.2333984-0.125,0.4931641-0.1879883,0.7802734-0.1879883c0.2011719,0,0.3876953,0.027832,0.5585938,0.0830078
		c0.1699219,0.0551758,0.3193359,0.1362305,0.4472656,0.2426758c0.1289062,0.1069336,0.2314453,0.2373047,0.3085938,0.3911133
		s0.125,0.3305664,0.1416016,0.5292969h-0.8808594c-0.0058594-0.0727539-0.0214844-0.1396484-0.0478516-0.199707
		s-0.0634766-0.1118164-0.109375-0.1547852c-0.046875-0.0429688-0.1025391-0.0761719-0.1679688-0.0996094
		c-0.0654297-0.0239258-0.1396484-0.0356445-0.2246094-0.0356445c-0.1445312,0-0.2675781,0.0356445-0.3681641,0.1064453
		c-0.1015625,0.0708008-0.1777344,0.1723633-0.2285156,0.3051758c-0.0517578,0.1323242-0.078125,0.2915039-0.078125,0.4780273
		c0,0.1948242,0.0263672,0.3579102,0.0800781,0.4897461c0.0527344,0.1318359,0.1289062,0.2304688,0.2285156,0.2963867
		s0.2197266,0.0986328,0.3623047,0.0986328c0.0800781,0,0.1513672-0.0097656,0.2148438-0.0297852
		c0.0625-0.0200195,0.1181641-0.0493164,0.1650391-0.0883789c0.046875-0.0385742,0.0859375-0.0849609,0.1152344-0.1396484
		c0.0292969-0.0541992,0.0488281-0.1157227,0.0585938-0.1845703h0.8808594
		c-0.0097656,0.1362305-0.0478516,0.2744141-0.1123047,0.4155273c-0.0654297,0.1411133-0.1582031,0.2709961-0.2792969,0.3891602
		s-0.2705078,0.2133789-0.4472656,0.2856445S19.6351051,5.9152222,19.4007301,5.9152222z"/>
	<path class="st0" d="M23.0442848,2.6710815h0.8671875v2.0498047c0,0.2431641-0.0576172,0.4541016-0.1738281,0.6323242
		c-0.1162109,0.1787109-0.2773438,0.315918-0.4853516,0.4125977s-0.4492188,0.1450195-0.7236328,0.1450195
		c-0.2753906,0-0.5166016-0.0483398-0.7236328-0.1450195s-0.3671875-0.2338867-0.4833984-0.4125977
		c-0.1152344-0.1782227-0.1728516-0.3891602-0.1728516-0.6323242V2.6710815h0.8681641V4.647644
		c0,0.1005859,0.0224609,0.1889648,0.0664062,0.265625c0.0449219,0.0761719,0.1054688,0.1367188,0.1816406,0.1801758
		c0.0771484,0.0439453,0.1640625,0.0654297,0.2636719,0.0654297s0.1884766-0.0214844,0.265625-0.0654297
		c0.078125-0.043457,0.1386719-0.1040039,0.1826172-0.1801758c0.0449219-0.0766602,0.0673828-0.1650391,0.0673828-0.265625
		V2.6710815z"/>
	<path class="st0" d="M24.2200661,5.8722534V2.6710815h1.3798828c0.2373047,0,0.4453125,0.0473633,0.6240234,0.1411133
		c0.1777344,0.09375,0.3173828,0.2255859,0.4169922,0.3959961c0.0986328,0.1704102,0.1484375,0.3696289,0.1484375,0.5976562
		c0,0.2290039-0.0507812,0.4267578-0.1523438,0.59375s-0.2441406,0.2958984-0.4277344,0.3867188
		c-0.1826172,0.0908203-0.3964844,0.1362305-0.6396484,0.1362305h-0.8251953V4.24823h0.6494141
		c0.1025391,0,0.1904297-0.0185547,0.2636719-0.0546875c0.0732422-0.0366211,0.1289062-0.0878906,0.1679688-0.1538086
		c0.0380859-0.065918,0.0576172-0.144043,0.0576172-0.2338867c0-0.0932617-0.0195312-0.1723633-0.0576172-0.237793
		c-0.0390625-0.0649414-0.0947266-0.1147461-0.1679688-0.1489258c-0.0732422-0.034668-0.1611328-0.0517578-0.2636719-0.0517578
		h-0.3056641v2.5048828H24.2200661z"/>
	<path class="st0" d="M30.5452614,2.6710815v3.2011719h-0.7216797l-1.15625-1.6801758h-0.0214844v1.6801758h-0.8681641V2.6710815
		h0.7392578l1.1347656,1.6757812h0.0253906V2.6710815H30.5452614z"/>
	<path class="st0" d="M32.7503395,2.6710815h0.8671875v2.0498047c0,0.2431641-0.0576172,0.4541016-0.1738281,0.6323242
		c-0.1162109,0.1787109-0.2773438,0.315918-0.4853516,0.4125977s-0.4492188,0.1450195-0.7236328,0.1450195
		c-0.2753906,0-0.5166016-0.0483398-0.7236328-0.1450195s-0.3671875-0.2338867-0.4833984-0.4125977
		c-0.1152344-0.1782227-0.1728516-0.3891602-0.1728516-0.6323242V2.6710815h0.8681641V4.647644
		c0,0.1005859,0.0224609,0.1889648,0.0664062,0.265625c0.0449219,0.0761719,0.1054688,0.1367188,0.1816406,0.1801758
		c0.0771484,0.0439453,0.1640625,0.0654297,0.2636719,0.0654297s0.1884766-0.0214844,0.265625-0.0654297
		c0.078125-0.043457,0.1386719-0.1040039,0.1826172-0.1801758c0.0449219-0.0766602,0.0673828-0.1650391,0.0673828-0.265625
		V2.6710815z M32.5520973,2.3922729c-0.0810547,0-0.1503906-0.0131836-0.2070312-0.0390625
		c-0.0566406-0.0253906-0.1054688-0.0556641-0.1464844-0.0898438c-0.0400391-0.034668-0.078125-0.0644531-0.1132812-0.090332
		s-0.0732422-0.0385742-0.1132812-0.0385742c-0.0498047,0-0.0888672,0.0200195-0.1171875,0.0610352
		c-0.0273438,0.0410156-0.0429688,0.1005859-0.0458984,0.1791992h-0.4248047
		c0.0039062-0.2260742,0.0566406-0.3945312,0.1582031-0.5048828c0.1015625-0.1098633,0.2265625-0.1650391,0.3740234-0.1650391
		c0.0800781,0,0.1494141,0.012207,0.2060547,0.0375977c0.0576172,0.0249023,0.1074219,0.0541992,0.1494141,0.0878906
		s0.0810547,0.0629883,0.1162109,0.0878906c0.0351562,0.0253906,0.0712891,0.0375977,0.1083984,0.0375977
		c0.0605469,0,0.1025391-0.0209961,0.1279297-0.0629883c0.0253906-0.0424805,0.0380859-0.1005859,0.0400391-0.175293h0.4208984
		c-0.0029297,0.2207031-0.0556641,0.3881836-0.1591797,0.5029297C32.8226051,2.3346558,32.6985817,2.3922729,32.5520973,2.3922729z
		 M32.945652,3.0709839l-0.1953125-0.3999023c0.2333984,0,0.3974609-0.046875,0.4931641-0.1416016
		c0.0947266-0.0942383,0.1464844-0.2519531,0.1552734-0.4726562h0.6425781
		c-0.0087891,0.328125-0.1083984,0.5791016-0.2978516,0.7529297C33.5540504,2.9840698,33.2874489,3.0709839,32.945652,3.0709839z"/>
</g>
</svg>
