<?xml version="1.0" encoding="utf-8"?>
<!-- Generator: Adobe Illustrator 26.0.2, SVG Export Plug-In . SVG Version: 6.00 Build 0)  -->
<svg version="1.1" id="Layer_1" xmlns="http://www.w3.org/2000/svg" xmlns:xlink="http://www.w3.org/1999/xlink" x="0px" y="0px"
	 viewBox="0 0 47.5 18.4" style="enable-background:new 0 0 47.5 18.4;" xml:space="preserve">
<style type="text/css">
	.st0{fill:#02968D;}
	.st1{fill:#F1F0D8;}
	.st2{fill:#EA5424;}
	.st3{fill:#458DCB;}
	.st4{fill:#FDC733;}
	.st5{fill:#EF7E8B;}
	.st6{fill:#009645;}
</style>
<g>
	<path class="st0" d="M46.4,9.8c0.8,0,1.1,0.5,1.1,1s-0.4,1-1.1,1h-1.2v1.3h-0.5V9.8H46.4z M46.4,11.4c0.5,0,0.6-0.3,0.6-0.6
		s-0.2-0.6-0.6-0.6h-1.2v1.1h1.2V11.4z"/>
	<path class="st0" d="M41.3,11.6V9.7h0.5v1.8c0,0.6,0.3,1,1,1s1-0.4,1-1V9.7h0.5v1.9c0,0.8-0.5,1.5-1.5,1.5S41.3,12.5,41.3,11.6z"/>
	<path class="st0" d="M39.9,13.1c-1,0-1.7-0.7-1.7-1.6c0-0.9,0.7-1.6,1.7-1.6h1v0.5h-1c-0.7,0-1.2,0.5-1.2,1.2s0.5,1.2,1.2,1.2h1
		v0.5h-1V13.1z"/>
	<path class="st0" d="M34,13.1V9.8h1.3c1,0,1.7,0.7,1.7,1.6c0,0.9-0.7,1.6-1.7,1.6L34,13.1L34,13.1z M34.5,12.6h0.8
		c0.7,0,1.2-0.5,1.2-1.2s-0.5-1.2-1.2-1.2h-0.8V12.6z"/>
	<path class="st0" d="M32.4,13.1c-0.7,0-1-0.5-1-0.9V9.9h0.5v2.3c0,0.3,0.2,0.5,0.6,0.5h1.2v0.5L32.4,13.1L32.4,13.1z"/>
	<path class="st0" d="M29.4,11.7l1.7,1.4h-0.7l-1.7-1.4v1.4h-0.5V9.8H30c0.6,0,1,0.4,1,0.9s-0.4,0.9-1,0.9L29.4,11.7L29.4,11.7z
		 M28.7,10.2v1H30c0.4,0,0.6-0.3,0.6-0.5c0-0.3-0.2-0.5-0.6-0.5H28.7z"/>
	<path class="st0" d="M24.4,11.4c0-1,0.7-1.7,1.7-1.7s1.7,0.7,1.7,1.7s-0.7,1.7-1.7,1.7S24.4,12.4,24.4,11.4z M27.3,11.4
		c0-0.7-0.5-1.3-1.2-1.3s-1.2,0.5-1.2,1.3s0.5,1.3,1.2,1.3C26.8,12.7,27.3,12.2,27.3,11.4z"/>
	<path class="st0" d="M23.8,9.8h0.5l-0.8,3.3h-0.6l-0.7-2.6l-0.7,2.6h-0.6l-0.8-3.3h0.5l0.6,2.6l0.7-2.6h0.6l0.7,2.6L23.8,9.8z"/>
	<path class="st0" d="M39.8,8.9V8.4h2c0.4,0,0.5-0.2,0.5-0.5s-0.2-0.5-0.5-0.5h-1.1c-0.6,0-1-0.4-1-0.9s0.4-0.9,1-0.9h1.9v0.5h-1.9
		c-0.4,0-0.5,0.2-0.5,0.5s0.2,0.5,0.5,0.5h1.1c0.6,0,1,0.4,1,0.9s-0.3,0.9-1,0.9C41.8,8.9,39.8,8.9,39.8,8.9z"/>
	<path class="st0" d="M38.7,5.6h0.5l-0.3,1.3h-0.4L38.7,5.6z"/>
	<path class="st0" d="M37.5,5.6H38v3.3h-0.5l-2-2.5v2.5H35V5.6h0.5l2,2.5V5.6z"/>
	<path class="st0" d="M34.6,6h-2.1v0.9h2v0.4h-2v0.5c0,0.3,0.2,0.5,0.6,0.5h1.5v0.5h-1.5c-0.7,0-1.1-0.5-1.1-1V5.6h2.6V6L34.6,6z"/>
	<path class="st0" d="M31.1,5.6h0.4v3.3H31V6.4l-1,1.3h-0.2l-1-1.3v2.5h-0.5V5.6h0.4l1.2,1.5L31.1,5.6z"/>
	<path class="st0" d="M24.4,7.2c0-1,0.7-1.7,1.7-1.7s1.7,0.7,1.7,1.7s-0.7,1.7-1.7,1.7S24.4,8.2,24.4,7.2z M27.4,7.2
		c0-0.7-0.5-1.3-1.2-1.3S25,6.4,25,7.2s0.5,1.3,1.2,1.3C26.8,8.5,27.4,8,27.4,7.2z"/>
	<path class="st0" d="M23.9,5.6h0.5l-0.8,3.3H23l-0.7-2.6l-0.7,2.6H21l-0.8-3.3h0.5l0.6,2.6L22,5.6h0.6l0.7,2.6L23.9,5.6z"/>
	<path class="st0" d="M29.2,0.9l-1.4,3.8H29l0.2-0.5h1.2l0.2,0.5h1.2l-1.4-3.8H29.2z M29.8,1.9l0.5,1.6h-0.9L29.8,1.9z M25.4,0.9
		v3.8h1.2V3.3h0.9l0.3-0.8h-1.2V1.7H28l0.4-0.8H25.4z M23.4,0.9v3.8h1.2V0.9H23.4z M20.1,0.9v3.8h1.2V3.3h0.9l0.3-0.8h-1.2V1.7h1.4
		L23,0.9H20.1z"/>
	<path class="st1" d="M10.9,5L9.3,5.5L7.6,5L5.8,6.3L5.7,7.9L4.8,9.5l0.7,2.1l1.7,0.6l0.9,1.3h2.4l0.9-1.3l1.7-0.7l0.7-2.1l-0.9-1.6
		l-0.1-1.6L10.9,5z M10.5,10.9H8.1L7.3,8.6l2-1.4l2,1.4L10.5,10.9z"/>
	<path class="st2" d="M5.8,12.7l-0.9,1.4l0.7,0.7l0.8,0.4l1-1.5L5.8,12.7z"/>
	<path class="st2" d="M12.7,12.7l1.4,0.9l0.7-0.7l0.4-0.9l-1.4-0.9L12.7,12.7z"/>
	<path class="st2" d="M12.7,5.8l1-1.4L13,3.7l-0.9-0.4l-1,1.4L12.7,5.8z"/>
	<path class="st2" d="M5.8,5.8l-1.4-1L3.7,5.5L3.3,6.4l1.4,0.9L5.8,5.8z"/>
	<path class="st3" d="M4.7,11.1L3.3,12l0.4,0.9l0.7,0.7l1.4-0.9L4.7,11.1z"/>
	<path class="st3" d="M11.1,13.7l0.9,1.4l0.9-0.4l0.7-0.7l-1-1.4L11.1,13.7z"/>
	<path class="st3" d="M13.8,7.3l1.4-0.9l-0.4-0.9l-0.7-0.7l-1.4,1L13.8,7.3z"/>
	<path class="st3" d="M7.4,4.7l-1-1.4L5.5,3.6L4.8,4.3l1,1.4L7.4,4.7z"/>
	<path class="st4" d="M4.4,9.2L2.7,9.5v1l0.4,0.9l1.7-0.3L4.4,9.2z"/>
	<path class="st4" d="M9.3,14.1l0.3,1.7h1l0.9-0.4l-0.4-1.7L9.3,14.1z"/>
	<path class="st4" d="M15.5,7l-1.7,0.3l0.4,1.9l1.7-0.3v-1L15.5,7z"/>
	<path class="st4" d="M9.3,4.3L9,2.6H8L7.1,3l0.3,1.7L9.3,4.3z"/>
	<path class="st1" d="M4.7,7.3L3,7L2.6,7.9v1l1.8,0.3L4.7,7.3z"/>
	<path class="st1" d="M7.4,13.7l-0.3,1.7L8,15.8h1l0.3-1.7L7.4,13.7z"/>
	<path class="st1" d="M13.8,11.1l1.7,0.3l0.4-0.9v-1l-1.7-0.3L13.8,11.1z"/>
	<path class="st1" d="M11.1,4.7L11.4,3l-0.9-0.4h-1L9.2,4.3L11.1,4.7z"/>
	<path class="st5" d="M0,7.9v2.6h2.6V7.9C2.6,7.9,0,7.9,0,7.9z"/>
	<path class="st5" d="M10.6,15.8H8v2.6h2.6C10.6,18.4,10.6,15.8,10.6,15.8z"/>
	<path class="st5" d="M15.8,7.9v2.6h2.6V7.9C18.4,7.9,15.8,7.9,15.8,7.9z"/>
	<path class="st5" d="M7.9,0v2.6h2.6V0H7.9z"/>
	<path class="st6" d="M2.7,10.5l-2.4,1l1,2.4l2.4-1L2.7,10.5z"/>
	<path class="st6" d="M5.5,14.8l-1,2.4l2.4,1l1-2.4L5.5,14.8z"/>
	<path class="st6" d="M13,14.8l-2.4,1l1,2.4l2.4-1L13,14.8z"/>
	<path class="st6" d="M15.8,10.5l-1,2.4l2.4,1l1-2.4L15.8,10.5z"/>
	<path class="st6" d="M17.3,4.5l-2.4,1l1,2.4l2.4-1L17.3,4.5z"/>
	<path class="st6" d="M11.6,0.2l-1,2.4l2.4,1l1-2.4L11.6,0.2z"/>
	<path class="st6" d="M6.9,0.2l-2.4,1l1,2.4l2.4-1L6.9,0.2z"/>
	<path class="st6" d="M1.3,4.5l-1,2.4l2.4,1l1-2.4L1.3,4.5z"/>
	<path class="st1" d="M3.7,12.9l-1.9,1.9l1.9,1.9l1.9-1.9L3.7,12.9z"/>
	<path class="st1" d="M14.8,12.9l-1.9,1.9l1.9,1.9l1.9-1.9L14.8,12.9z"/>
	<path class="st1" d="M14.8,1.8l-1.9,1.9l1.9,1.9l1.9-1.9L14.8,1.8z"/>
	<path class="st1" d="M5.5,3.6L3.7,1.8L1.8,3.6l1.9,1.9l0.7-0.7l0.5-0.5L5.5,3.6z"/>
	<path class="st0" d="M20.1,17.4v-1.9h2c0.2,0,0.3,0,0.4-0.1s0.1-0.2,0.1-0.3c0-0.1,0-0.3-0.1-0.3c-0.1-0.1-0.2-0.1-0.4-0.1h-2v-0.5
		h2c0.2,0,0.4,0,0.6,0.1s0.3,0.2,0.4,0.4c0.1,0.1,0.1,0.3,0.1,0.5s0,0.3-0.1,0.5c-0.1,0.1-0.2,0.3-0.4,0.4c-0.2,0.1-0.3,0.1-0.6,0.1
		h-1.4V17h2.4v0.5h-3V17.4z M25.3,17.4c-0.3,0-0.6-0.1-0.9-0.2s-0.5-0.3-0.6-0.6c-0.2-0.3-0.2-0.6-0.2-0.9s0.1-0.6,0.2-0.9
		c0.2-0.3,0.4-0.5,0.6-0.6c0.3-0.1,0.6-0.2,0.9-0.2s0.6,0.1,0.9,0.2s0.5,0.3,0.6,0.6c0.2,0.3,0.2,0.6,0.2,0.9s-0.1,0.6-0.2,0.9
		s-0.4,0.5-0.6,0.6C26,17.4,25.7,17.4,25.3,17.4z M25.3,16.9c0.2,0,0.4-0.1,0.6-0.2s0.3-0.2,0.4-0.4c0.1-0.2,0.2-0.4,0.2-0.6
		s-0.1-0.4-0.2-0.6s-0.2-0.3-0.4-0.4c-0.2-0.1-0.4-0.2-0.6-0.2s-0.4,0.1-0.6,0.2s-0.3,0.2-0.4,0.4c-0.1,0.2-0.1,0.4-0.1,0.6
		s0,0.4,0.1,0.6s0.2,0.3,0.4,0.4C24.9,16.9,25.1,16.9,25.3,16.9z M27.7,17.4v-1.9h2c0.2,0,0.3,0,0.4-0.1c0.1-0.1,0.1-0.2,0.1-0.3
		c0-0.1,0-0.3-0.1-0.3c-0.1-0.1-0.2-0.1-0.4-0.1h-2v-0.5h2c0.2,0,0.4,0,0.6,0.1c0.2,0.1,0.3,0.2,0.4,0.4c0.1,0.1,0.1,0.3,0.1,0.5
		s0,0.3-0.1,0.5c-0.1,0.1-0.2,0.3-0.4,0.4s-0.3,0.1-0.6,0.1h-1.4V17h2.4v0.5h-3V17.4z M33.6,15.7c0.2,0.1,0.3,0.2,0.4,0.3
		c0.1,0.1,0.1,0.3,0.1,0.5s0,0.3-0.1,0.4s-0.2,0.2-0.4,0.3c-0.2,0.1-0.3,0.1-0.5,0.1h-1.9v-0.5h1.9c0.2,0,0.3,0,0.4-0.1
		c0.1-0.1,0.1-0.2,0.1-0.3c0-0.1,0-0.2-0.1-0.3C33.4,16,33.3,16,33.1,16h-1.9v-0.5h1.9c0.2,0,0.3,0,0.4-0.1c0.1-0.1,0.1-0.2,0.1-0.3
		c0-0.1,0-0.2-0.1-0.3c-0.1-0.1-0.2-0.1-0.4-0.1h-1.8v-0.5h1.9c0.2,0,0.4,0,0.5,0.1c0.2,0.1,0.3,0.2,0.4,0.3
		c0.1,0.1,0.1,0.3,0.1,0.5s0,0.3-0.1,0.4C33.9,15.5,33.8,15.6,33.6,15.7z"/>
	<path class="st0" d="M35.7,14v0.2h-0.5v1H35v-1h-0.4V14H35.7z M36.5,14.6l0.4-0.6h0.2v1.2h-0.2v-0.9l-0.4,0.5l0,0l-0.4-0.5v0.9
		h-0.2V14h0.2L36.5,14.6z"/>
</g>
</svg>
